<svg width="32" height="32" viewBox="0 0 32 32" fill="none" xmlns="http://www.w3.org/2000/svg">
<path d="M8 12V2.66663H24V12" stroke="#2A5BD7" stroke-width="2" stroke-linecap="round" stroke-linejoin="round"/>
<path d="M8 12V2.66663H24V12" stroke="black" stroke-opacity="0.5" stroke-width="2" stroke-linecap="round" stroke-linejoin="round"/>
<path d="M7.99984 24H5.33317C4.62593 24 3.94765 23.719 3.44755 23.219C2.94746 22.7189 2.6665 22.0406 2.6665 21.3333V14.6667C2.6665 13.9594 2.94746 13.2811 3.44755 12.781C3.94765 12.281 4.62593 12 5.33317 12H26.6665C27.3737 12 28.052 12.281 28.5521 12.781C29.0522 13.2811 29.3332 13.9594 29.3332 14.6667V21.3333C29.3332 22.0406 29.0522 22.7189 28.5521 23.219C28.052 23.719 27.3737 24 26.6665 24H23.9998" stroke="#2A5BD7" stroke-width="2" stroke-linecap="round" stroke-linejoin="round"/>
<path d="M7.99984 24H5.33317C4.62593 24 3.94765 23.719 3.44755 23.219C2.94746 22.7189 2.6665 22.0406 2.6665 21.3333V14.6667C2.6665 13.9594 2.94746 13.2811 3.44755 12.781C3.94765 12.281 4.62593 12 5.33317 12H26.6665C27.3737 12 28.052 12.281 28.5521 12.781C29.0522 13.2811 29.3332 13.9594 29.3332 14.6667V21.3333C29.3332 22.0406 29.0522 22.7189 28.5521 23.219C28.052 23.719 27.3737 24 26.6665 24H23.9998" stroke="black" stroke-opacity="0.5" stroke-width="2" stroke-linecap="round" stroke-linejoin="round"/>
<path d="M24 18.6666H8V29.3333H24V18.6666Z" stroke="#2A5BD7" stroke-width="2" stroke-linecap="round" stroke-linejoin="round"/>
<path d="M24 18.6666H8V29.3333H24V18.6666Z" stroke="black" stroke-opacity="0.5" stroke-width="2" stroke-linecap="round" stroke-linejoin="round"/>
</svg>
